<?xml version="1.0" encoding="utf-8"?>
<!-- Generator: Adobe Illustrator 16.0.0, SVG Export Plug-In . SVG Version: 6.00 Build 0)  -->
<!DOCTYPE svg PUBLIC "-//W3C//DTD SVG 1.1//EN" "http://www.w3.org/Graphics/SVG/1.1/DTD/svg11.dtd">
<svg version="1.1" id="Calque_1" xmlns="http://www.w3.org/2000/svg" xmlns:xlink="http://www.w3.org/1999/xlink" x="0px" y="0px"
	 width="1280px" height="800px" viewBox="0 0 1280 800" enable-background="new 0 0 1280 800" xml:space="preserve">
<path fill="#FFFFFF" d="M1171.646,364.706c-5.65-13.432-13.757-25.493-24.442-36.185c-10.693-10.685-28.499-18.78-41.931-24.276
	c-13.439-5.495-27.625-8.244-42.583-8.244c-15.271,0-29.614,2.749-43.046,8.244c-13.439,5.497-19.72,13.591-30.404,24.276
	c-0.382,0.382-0.751,0.769-1.126,1.154c-1.207-1.319-2.447-2.621-3.729-3.902c-21.686-21.678-47.792-32.52-78.323-32.52
	c-10.074,0-19.715,1.303-29.178,3.893c-9.467,2.599-18.885,6.341-26.885,11.222V300h-1l0,0H684.865l1.348-93H631v103.341
	c-16-9.556-34.688-14.34-54.957-14.34c-20.703,0-38.043,3.445-54.043,10.306v-0.01l0.113,0.209
	c-6.355,2.845-12.122,6.494-17.553,10.494H446v144.939c0,36.148-18.73,53.115-47.5,53.115S351,497.35,351,460.096V317h-73v0.756
	c-7-5.537-15.268-10.043-23.745-13.512c-13.439-5.495-27.616-8.244-42.575-8.244c-15.271,0-29.61,2.749-43.043,8.244
	c-13.439,5.497-25.494,13.591-36.18,24.276c-10.691,10.692-18.854,22.603-24.501,36.034c-5.654,13.44-8.47,27.445-8.47,42.445
	h54.963c0-7,1.525-14.736,4.58-21.603c3.05-6.873,7.173-12.823,12.367-18.016c5.188-5.189,11.222-9.198,18.092-12.103
	c6.872-2.899,14.271-4.333,22.215-4.333c7.33,0,14.271,1.314,20.842,3.904c6.562,2.6,12.365,6.188,17.404,10.769
	c5.039,4.581,9.059,10.008,12.264,16.263c1.638,3.198,2.787,6.5,3.787,9.896v18.816c0,0.681-1.644,1.265-3.101,1.748
	c-4.278,1.834-10.102,2.743-17.582,3.202c-7.486,0.461-14.833,0.457-22.163,0.457h-6.871h-6.869c-11.609,0-23.21,0.77-34.811,1.834
	c-11.609,1.074-22.602,4.01-32.979,8.591c-4.582,2.14-9.391,5.095-14.428,8.76c-5.038,3.666-9.549,8.352-13.514,13.998
	c-3.971,5.656-7.256,12.381-9.848,20.169c-2.59,7.788-3.893,17.034-3.893,27.719c0,12.824,2.519,24.665,7.558,35.501
	c5.038,10.843,12.287,20.385,21.757,28.629c8.546,7.327,18.32,12.982,29.314,16.948c10.992,3.965,22.443,5.955,34.352,5.955
	c16.182,0,32.214-3.823,48.093-11.451c5.188-2.438,9.999-5.188,14.429-8.243c4.424-3.05,7.634-5.631,13.054-10.077
	c5.138-4.215,16.446-18.183,21.209-32.347c18.048,39.141,56.2,57.618,107.892,57.618c42.043,0,75.608-11.987,96.621-37.888
	c1.212,1.319,2.459,2.624,3.748,3.912c10.686,10.693,22.744,18.781,36.184,24.275c13.432,5.499,27.482,8.246,42.139,8.246
	c29.924,0,54.656-6.255,74.201-18.779c5.632-3.854,10.648-8.161,15.059-12.915c21.322,20.521,46.833,30.778,76.54,30.778
	c14.958,0,29.087-2.747,42.37-8.246c13.281-5.494,25.262-13.582,35.955-24.275c10.685-10.377,18.777-22.285,24.274-35.726
	c5.497-13.435,5.036-27.47,5.036-42.436l0.458-62.453c0-7.631,1.444-14.888,4.349-21.757c2.9-6.87,6.873-12.827,11.909-17.863
	c5.038-5.039,10.993-9.004,17.866-11.909c6.869-2.9,14.118-4.352,21.754-4.352c7.631,0,14.887,1.452,21.757,4.352
	c6.87,2.905,12.825,6.87,17.863,11.909c5.038,5.036,9.004,10.993,11.909,17.863c0.924,2.188,1.326,4.259,1.449,6.313
	c-0.18,2.354-0.285,4.991-0.344,7.515c-0.205,2.082-0.416,3.831-0.416,6.831h0.346c0,0-0.002,0-0.002,1h54.962
	c0-8-0.831-11.371,2.224-18.238c3.049-6.873,7.172-13.005,12.366-18.199c5.188-5.189,11.222-9.289,18.092-12.194
	c6.872-2.899,14.271-4.378,22.215-4.378c7.331,0,14.271,1.291,20.842,3.88c6.562,2.6,12.366,6.177,17.405,10.758
	c5.039,4.581,9.162,10.002,12.366,16.257c3.208,6.262,5.11,12.901,5.726,19.924c0,2.747-0.158,4.734-0.458,5.95
	c-0.308,1.227-0.616,1.988-0.915,2.288c-0.616,0.919-1.832,1.685-3.666,2.292c-4.277,1.834-10.153,2.744-17.634,3.202
	c-7.485,0.461-14.885,0.457-22.215,0.457h-6.87h-6.87c-11.608,0-23.21,0.77-34.81,1.834c-11.609,1.074-22.603,4.01-32.979,8.591
	c-4.581,2.14-9.391,5.095-14.427,8.76c-5.039,3.666-9.549,8.352-13.514,13.998c-3.971,5.656-7.257,12.381-9.849,20.169
	c-2.589,7.788-3.892,17.034-3.892,27.719c0,12.824,2.518,24.665,7.557,35.501c5.039,10.843,12.287,20.385,21.758,28.629
	c8.545,7.327,18.32,12.982,29.313,16.948c10.993,3.965,22.444,5.955,34.353,5.955c16.182,0,32.213-3.823,48.092-11.451
	c5.189-2.438,9.859-5.188,14.29-8.243c4.424-3.05,8.913-6.415,12.913-10.077V580h55V407.302
	C1180,392.347,1177.293,378.146,1171.646,364.706z M250.637,488.605c-3.055,5.651-6.412,10.761-10.078,15.342
	c-4.277,5.497-8.701,9.928-13.281,13.285c-4.582,3.362-8.934,5.883-13.054,7.557c-4.123,1.682-8.017,2.826-11.68,3.437
	c-3.665,0.615-6.872,0.915-9.62,0.915c-4.58,0-9.161-0.688-13.74-2.062c-4.58-1.373-8.703-3.437-12.369-6.184
	c-3.662-2.747-6.569-6.104-8.701-10.077c-2.139-3.963-3.207-8.546-3.207-13.74c0-8.246,1.068-13.514,3.207-15.803
	c2.132-2.289,4.273-3.894,6.412-4.81c5.189-2.438,11.98-4.107,20.385-4.566c8.393-0.457,16.561-0.898,24.504-0.898h6.869h6.871
	c5.796,0,11.68,0.141,17.633-0.018c5.955-0.146,11.833-0.576,17.635-1.495C256.283,476.516,253.686,482.959,250.637,488.605z
	 M530.258,368.372c2.292-3.357,4.652-5.799,7.102-7.331c8.544-6.712,21.525-10.077,38.932-10.077c7.63,0,14.887,1.452,21.756,4.352
	c6.871,2.905,12.825,6.873,17.863,11.909c5.039,5.039,8.88,10.994,11.785,17.866c1.576,3.732,3.305,7.583,3.305,11.543v20.798
	c-3-1.157-7.273-2.094-11.091-2.799c-9.928-1.834-18.946-3.208-27.192-4.123l-9.585-1.376c-6.112-0.916-13.198-2.211-21.284-3.892
	c-8.093-1.677-15.337-4.194-21.749-7.56c-6.72-3.354-10.61-6.184-11.676-8.473c-1.073-2.289-1.601-4.041-1.601-5.268
	C526.822,376.923,527.969,371.734,530.258,368.372z M620.263,513.106c-10.693,6.723-25.349,10.078-43.972,10.078
	c-7.637,0-14.885-1.445-21.755-4.353c-6.872-2.896-12.827-6.867-17.866-11.908c-5.035-5.036-9.009-10.993-11.908-17.86
	c-2.904-6.873-5.645-13.422-5.645-21.061l0,0c1.22-5.964,2.084-12.024,2.59-18.181c8.225,3.539,16.644,6.246,25.27,8.093
	c10.686,2.289,19.997,4.053,27.94,5.268c1.831,0.616,3.587,0.995,5.268,1.145c1.677,0.158,3.437,0.387,5.268,0.688
	c10.077,1.226,18.163,2.521,24.274,3.894c6.105,1.374,10.836,3.058,14.201,5.039c3.354,1.989,5.567,4.28,6.641,6.87
	c1.066,2.6,1.603,5.725,1.603,9.388C632.171,500.593,628.201,508.229,620.263,513.106z M794.771,467
	c0.039,3,0.266,5.479,0.407,8.053l-0.033,6.714c-0.202,2.127-0.649,4.264-1.526,6.343c-2.904,6.867-6.869,12.844-11.908,17.88
	c-5.039,5.041-10.993,9.021-17.863,11.918c-6.869,2.907-14.127,4.356-21.757,4.356c-7.636,0-14.885-1.441-21.755-4.349
	c-6.872-2.897-12.826-6.867-17.863-11.908c-5.038-5.036-9.012-10.993-11.91-17.86c-2.905-6.873-4.35-13.918-4.35-21.557L684.865,355
	H795v112H794.771z M1107.417,488.605c-3.055,5.651-6.412,10.761-10.077,15.342c-4.278,5.497-8.701,9.928-13.282,13.285
	c-4.581,3.362-8.933,5.883-13.054,7.557c-4.123,1.682-8.017,2.826-11.68,3.437c-3.665,0.615-6.872,0.915-9.619,0.915
	c-4.581,0-9.162-0.688-13.74-2.062c-4.58-1.373-8.703-3.437-12.369-6.184c-3.662-2.747-6.57-6.104-8.701-10.077
	c-2.139-3.963-3.207-8.546-3.207-13.74c0-8.246,1.068-13.514,3.207-15.803c2.131-2.289,4.273-3.894,6.412-4.81
	c5.189-2.438,11.98-4.107,20.384-4.566c8.394-0.457,16.561-0.898,24.504-0.898h6.87h6.87c5.796,0,11.68,0.141,17.634-0.018
	c5.955-0.146,11.832-0.576,17.635-1.495C1113.063,476.516,1110.467,482.959,1107.417,488.605z"/>
</svg>
