<?xml version="1.0" encoding="utf-8"?>
<!-- Generator: Adobe Illustrator 16.0.0, SVG Export Plug-In . SVG Version: 6.00 Build 0)  -->
<!DOCTYPE svg PUBLIC "-//W3C//DTD SVG 1.1//EN" "http://www.w3.org/Graphics/SVG/1.1/DTD/svg11.dtd">
<svg version="1.1" id="Calque_1" xmlns="http://www.w3.org/2000/svg" xmlns:xlink="http://www.w3.org/1999/xlink" x="0px" y="0px"
	 width="1080.759px" height="377.42px" viewBox="0 0 1080.759 377.42" enable-background="new 0 0 1080.759 377.42"
	 xml:space="preserve">
<g>
	<path fill="#FFFFFF" d="M190.951,312.962c-4.223,14.937-16.518,30.239-21.938,34.687c-5.42,4.446-8.63,7.027-13.054,10.077
		c-4.43,3.055-9.24,5.805-14.429,8.243c-15.879,7.628-31.911,11.451-48.093,11.451c-11.908,0-23.359-1.989-34.352-5.954
		c-10.994-3.966-20.769-9.62-29.314-16.947c-9.47-8.244-16.719-17.784-21.757-28.627c-5.039-10.836-7.558-22.674-7.558-35.498
		c0-10.685,1.303-19.923,3.893-27.711c2.592-7.788,5.877-14.498,9.848-20.154c3.965-5.646,8.476-10.304,13.514-13.97
		c5.037-3.665,9.846-6.562,14.428-8.701c10.377-4.581,21.369-7.401,32.979-8.475c11.601-1.065,23.201-1.603,34.811-1.603h6.869
		h6.871c7.33,0,14.729-0.229,22.215-0.689c7.48-0.458,13.355-1.6,17.634-3.434c1.833-0.607,3.05-1.373,3.665-2.292
		c0.3-0.3,0.607-1.062,0.916-2.289c0.299-1.216,0.457-3.204,0.457-5.951c-0.615-7.022-2.518-13.664-5.725-19.926
		c-3.205-6.255-7.328-11.68-12.367-16.261c-5.039-4.581-10.843-8.165-17.404-10.764c-6.57-2.589-13.512-3.894-20.842-3.894
		c-7.943,0-15.343,1.452-22.215,4.352c-6.87,2.905-12.904,6.952-18.092,12.141c-5.194,5.194-9.317,11.219-12.367,18.092
		c-3.055,6.867-4.58,14.124-4.58,21.754H0c0-14.955,2.818-29.155,8.473-42.596c5.646-13.432,13.812-25.493,24.504-36.185
		c10.686-10.685,22.746-18.78,36.186-24.276c13.433-5.495,27.783-8.244,43.055-8.244c14.958,0,29.158,2.749,42.598,8.244
		c13.433,5.497,25.491,13.591,36.185,24.276c10.685,10.692,18.853,22.753,24.504,36.185c5.646,13.44,3.671,27.388,3.671,42.344
		 M141.072,297.264c3.666-4.581,7.023-9.69,10.078-15.342c3.049-5.646,5.646-11.982,7.785-19.011
		c-5.802,0.919-11.68,1.455-17.635,1.603c-5.953,0.158-11.837,0.231-17.633,0.231h-6.871h-6.869c-7.943,0-16.111,0.227-24.504,0.685
		c-8.404,0.458-15.195,1.913-20.385,4.352c-2.139,0.916-4.28,2.521-6.412,4.81c-2.139,2.289-3.207,7.557-3.207,15.803
		c0,5.194,1.068,9.777,3.207,13.74c2.132,3.974,5.039,7.33,8.701,10.077c3.666,2.747,7.789,4.811,12.369,6.184
		c4.579,1.374,9.16,2.062,13.74,2.062c2.748,0,5.955-0.3,9.62-0.915c3.663-0.61,7.557-1.755,11.68-3.437
		c4.12-1.674,8.472-4.194,13.054-7.557C132.371,307.191,136.795,302.761,141.072,297.264z"/>
	<path fill="#FFFFFF" d="M294.969,371.466c-17.404,0-34.507-3.815-51.299-11.451c-7.636-3.965-14.814-8.473-21.525-13.514
		c-6.721-5.036-13.135-10.914-19.24-17.634c-11.607-13.433-20.538-28.627-26.793-45.572c-6.262-16.95-9.391-34.731-9.391-53.36
		V120.316l52.662,53l2.303,56.618c0,11.909,1.902,23.129,5.727,33.664c3.812,10.535,9.08,19.696,15.8,27.482
		c6.714,7.785,14.5,13.969,23.359,18.552c8.854,4.578,18.323,6.868,28.397,6.868c10.078,0,19.469-2.29,28.17-6.868
		c8.704-4.583,16.41-10.767,23.131-18.552c6.715-7.786,11.982-16.947,15.803-27.482c3.814-10.535,5.725-21.755,5.725-33.664
		l5.066-62.494l49.899-67.828v130.321c0,18.629-3.137,36.41-9.391,53.36c-6.263,16.945-15.192,32.14-26.796,45.572
		c-6.109,6.72-12.524,12.598-19.236,17.634c-6.721,5.041-13.898,9.549-21.528,13.514
		C329.014,367.65,312.066,371.466,294.969,371.466z"/>
	<path fill="#FFFFFF" d="M548.717,218.026c6.104,3.053,11.451,6.641,16.031,10.762c4.581,4.123,8.543,8.782,11.908,13.972
		c7.328,11.608,10.994,25.19,10.994,40.762c0,14.661-3.208,27.869-9.62,39.62c-6.412,11.762-15.424,21.607-27.024,29.545
		c-19.545,12.524-44.277,18.779-74.201,18.779c-14.656,0-28.707-2.747-42.139-8.246c-13.439-5.494-25.498-13.582-36.184-24.275
		c-21.687-21.676-32.521-47.785-32.521-78.324l53.67,0.699c0,7.639,2.74,14.188,5.645,21.061c2.899,6.867,6.873,12.824,11.908,17.86
		c5.039,5.041,10.994,9.012,17.866,11.908c6.87,2.907,14.118,4.353,21.755,4.353c18.623,0,33.278-3.355,43.972-10.078
		c7.938-4.878,11.908-12.514,11.908-22.901c0-3.663-0.536-6.788-1.603-9.388c-1.073-2.59-3.286-4.881-6.641-6.87
		c-3.365-1.981-8.096-3.665-14.201-5.039c-6.111-1.373-14.197-2.668-24.274-3.894c-1.831-0.301-3.591-0.529-5.268-0.688
		c-1.681-0.149-3.437-0.528-5.268-1.145c-7.943-1.215-17.255-2.979-27.94-5.268c-10.69-2.289-21.068-5.875-31.145-10.764
		c-6.113-3.05-11.609-6.483-16.49-10.307c-4.889-3.814-9.162-7.856-12.824-12.135c-9.777-12.211-14.658-25.801-14.658-40.768
		c0-13.74,2.75-26.406,8.246-38.015c5.188-10.994,13.125-20.613,23.817-28.857c18.62-14.041,42.746-21.069,72.368-21.069
		c30.531,0,56.638,10.842,78.324,32.52c10.686,10.692,18.778,22.674,24.275,35.957c5.496,13.282,5.072,27.411,5.072,42.367h-51.792
		c0-7.631-1.452-14.888-4.352-21.755c-2.905-6.872-6.87-12.827-11.909-17.866c-5.038-5.036-10.992-9.003-17.863-11.909
		c-6.869-2.899-14.126-4.352-21.756-4.352c-17.406,0-30.388,3.365-38.932,10.077c-2.449,1.531-4.81,3.973-7.102,7.331
		c-2.289,3.363-3.434,8.551-3.434,15.571c0,1.227,0.529,2.979,1.603,5.268c1.065,2.289,4.96,5.118,11.68,8.473
		c6.412,3.365,13.664,5.883,21.757,7.56c8.086,1.681,15.188,2.976,21.3,3.892l9.616,1.376c8.246,0.915,17.326,2.289,27.254,4.123
		C530.467,209.78,539.857,213.143,548.717,218.026z"/>
	<path fill="#FFFFFF" d="M750.24,259.867c0,14.966,0.461,29.001-5.036,42.436c-5.497,13.44-13.59,25.349-24.274,35.726
		c-10.693,10.693-22.674,18.781-35.955,24.275c-13.283,5.499-27.412,8.246-42.37,8.246c-30.538,0-56.644-10.835-78.321-32.521
		c-10.693-10.377-18.781-22.285-24.275-35.726c-5.497-13.435-8.246-27.633-8.246-42.599V0h54.965l-1.348,92.962h164.433v54.949
		H585.379l1.348,111.793c0,7.639,1.444,14.887,4.35,21.76c2.898,6.867,6.872,12.824,11.91,17.86
		c5.037,5.041,10.991,9.012,17.863,11.909c6.87,2.907,14.119,4.352,21.755,4.352c7.63,0,14.888-1.444,21.757-4.352
		c6.87-2.897,12.824-6.868,17.863-11.909c5.039-5.036,9.004-10.993,11.908-17.86c2.9-6.873,1.143-13.958,1.143-21.597H750.24z"/>
	<path fill="#FFFFFF" d="M884.9,119.089c10.686,10.692,18.779,22.673,24.275,35.958c5.496,13.282-0.174,25.872-0.174,40.83h-50.207
		c0-7.63,2.209-13.351-0.689-20.22c-2.905-6.87-6.871-12.827-11.909-17.863c-5.038-5.039-10.993-9.004-17.863-11.909
		c-6.87-2.9-14.126-4.352-21.757-4.352c-7.636,0-14.885,1.452-21.754,4.352c-6.873,2.905-12.828,6.87-17.866,11.909
		c-5.036,5.036-9.009,10.993-11.909,17.863c-2.904,6.869-4.349,14.126-4.349,21.757l-0.458,62.453l-54.965,91.606l0.457-90.854
		h-0.457V92.981h54.965v8.703c8.543-4.881,17.555-8.624,27.021-11.222c9.463-2.59,19.24-3.893,29.314-3.893
		C837.107,86.569,863.215,97.411,884.9,119.089z"/>
	<path fill="#FFFFFF" d="M1047.779,121.837c10.686,10.692,18.853,22.753,24.504,36.185c5.646,13.44,8.476,27.641,8.476,42.596
		v172.221h-54.966v-25.19c-4.277,3.662-8.629,7.027-13.053,10.077c-4.431,3.055-9.24,5.805-14.43,8.243
		c-15.879,7.628-31.91,11.451-48.092,11.451c-11.908,0-23.359-1.989-34.353-5.954c-10.993-3.966-20.769-9.62-29.313-16.947
		c-9.471-8.244-16.719-17.784-21.758-28.627c-5.039-10.836-7.557-22.674-7.557-35.498c0-10.685,1.303-19.923,3.892-27.711
		c2.592-7.788,5.878-14.498,9.849-20.154c3.965-5.646,8.475-10.304,13.514-13.97c5.036-3.665,9.846-6.562,14.427-8.701
		c10.377-4.581,21.37-7.401,32.979-8.475c11.6-1.065,23.201-1.603,34.81-1.603h6.87h6.87c7.33,0,14.729-0.229,22.215-0.689
		c7.48-0.458,13.356-1.6,17.634-3.434c1.834-0.607,3.05-1.373,3.666-2.292c0.299-0.3,0.607-1.062,0.915-2.289
		c0.3-1.216,0.458-3.204,0.458-5.951c-0.615-7.022-2.518-13.664-5.726-19.926c-3.204-6.255-7.327-11.68-12.366-16.261
		c-5.039-4.581-10.844-8.165-17.405-10.764c-6.57-2.589-13.511-3.894-20.842-3.894c-7.943,0-15.343,1.452-22.215,4.352
		c-6.87,2.905-12.903,6.952-18.092,12.141c-5.194,5.194-9.317,11.219-12.366,18.092c-3.055,6.867-2.224,10.393-2.224,18.023h-54.962
		c0-14.955,0.46-25.425,6.114-38.865c5.646-13.432,13.813-25.493,24.505-36.185c10.685-10.685,16.969-18.78,30.408-24.276
		c13.432-5.495,27.783-8.244,43.054-8.244c14.958,0,29.159,2.749,42.599,8.244C1019.25,103.058,1037.086,111.152,1047.779,121.837z
		 M997.854,297.264c3.665-4.581,7.022-9.69,10.077-15.342c3.05-5.646,5.646-11.982,7.786-19.011
		c-5.803,0.919-11.68,1.455-17.635,1.603c-5.954,0.158-11.838,0.231-17.634,0.231h-6.87h-6.87c-7.943,0-16.11,0.227-24.504,0.685
		c-8.403,0.458-15.194,1.913-20.384,4.352c-2.139,0.916-4.281,2.521-6.412,4.81c-2.139,2.289-3.207,7.557-3.207,15.803
		c0,5.194,1.068,9.777,3.207,13.74c2.131,3.974,5.039,7.33,8.701,10.077c3.666,2.747,7.789,4.811,12.369,6.184
		c4.578,1.374,9.159,2.062,13.74,2.062c2.747,0,5.954-0.3,9.619-0.915c3.663-0.61,7.557-1.755,11.68-3.437
		c4.121-1.674,8.473-4.194,13.054-7.557C989.152,307.191,993.575,302.761,997.854,297.264z"/>
</g>
<text transform="matrix(1 0 0 1 159.0566 368.124)" fill="#FFFFFF" font-family="'Gotham-Black'" font-size="368.8437">U</text>
</svg>
